<?xml version="1.0" encoding="UTF-8" standalone="no"?>
<svg
   xmlns:dc="http://purl.org/dc/elements/1.1/"
   xmlns:cc="http://creativecommons.org/ns#"
   xmlns:rdf="http://www.w3.org/1999/02/22-rdf-syntax-ns#"
   xmlns:svg="http://www.w3.org/2000/svg"
   xmlns="http://www.w3.org/2000/svg"
   xmlns:sodipodi="http://sodipodi.sourceforge.net/DTD/sodipodi-0.dtd"
   xmlns:inkscape="http://www.inkscape.org/namespaces/inkscape"
   width="16"
   height="16"
   viewBox="0 0 4.2333332 4.2333335"
   version="1.1"
   id="svg8"
   inkscape:version="1.0.1 (3bc2e813f5, 2020-09-07)"
   sodipodi:docname="iconPage.svg">
  <defs
     id="defs2" />
  <sodipodi:namedview
     id="base"
     pagecolor="#ffffff"
     bordercolor="#666666"
     borderopacity="1.0"
     inkscape:pageopacity="0.0"
     inkscape:pageshadow="2"
     inkscape:zoom="11.2"
     inkscape:cx="-2.7721712"
     inkscape:cy="5.2107309"
     inkscape:document-units="mm"
     inkscape:current-layer="layer1"
     inkscape:document-rotation="0"
     showgrid="true"
     inkscape:window-width="1350"
     inkscape:window-height="729"
     inkscape:window-x="0"
     inkscape:window-y="0"
     inkscape:window-maximized="0"
     units="px">
    <inkscape:grid
       type="xygrid"
       id="grid7" />
  </sodipodi:namedview>
  <metadata
     id="metadata5">
    <rdf:RDF>
      <cc:Work
         rdf:about="">
        <dc:format>image/svg+xml</dc:format>
        <dc:type
           rdf:resource="http://purl.org/dc/dcmitype/StillImage" />
        <dc:title></dc:title>
      </cc:Work>
    </rdf:RDF>
  </metadata>
  <g
     inkscape:label="Capa 1"
     inkscape:groupmode="layer"
     id="layer1">
    <path
       id="rect9"
       style="fill:#000080;stroke-width:0.799999;stroke-linecap:square;stroke-linejoin:bevel;stroke:none"
       d="M 0,0 H 4.2333331 V 4.2333331 H 0 Z" />
    <path
       id="rect835"
       style="fill:#ffffff;stroke:none;stroke-width:3.02362;stroke-linecap:square;stroke-linejoin:bevel"
       d="M 2 2 L 2 14 L 4 14 L 7 14 L 7 12 L 4 12 L 4 9 L 7 9 L 7 7 L 4 7 L 4 4 L 7 4 L 7 2 L 4 2 L 2 2 z "
       transform="scale(0.26458333)" />
    <path
       id="rect837-8"
       style="fill:#ffffff;stroke:none;stroke-width:4.78076;stroke-linecap:square;stroke-linejoin:bevel"
       d="M 9 2 L 9 4 L 9 7 L 9 9 L 11 9 L 12 9 L 12 12 L 9 12 L 9 14 L 14 14 L 14 12 L 14 9 L 14 7 L 12 7 L 11 7 L 11 4 L 14 4 L 14 2 L 9 2 z "
       transform="scale(0.26458333)" />
  </g>
</svg>
