<?xml version="1.0" encoding="UTF-8" standalone="no"?>
<!-- Created with Inkscape (http://www.inkscape.org/) -->

<svg
   width="397mm"
   height="210mm"
   viewBox="0 0 397 210"
   version="1.1"
   id="svg295"
   inkscape:version="1.2.2 (732a01da63, 2022-12-09)"
   sodipodi:docname="img.svg"
   xml:space="preserve"
   xmlns:inkscape="http://www.inkscape.org/namespaces/inkscape"
   xmlns:sodipodi="http://sodipodi.sourceforge.net/DTD/sodipodi-0.dtd"
   xmlns:xlink="http://www.w3.org/1999/xlink"
   xmlns="http://www.w3.org/2000/svg"
   xmlns:svg="http://www.w3.org/2000/svg"><sodipodi:namedview
     id="namedview297"
     pagecolor="#ffffff"
     bordercolor="#000000"
     borderopacity="0.25"
     inkscape:showpageshadow="2"
     inkscape:pageopacity="0.0"
     inkscape:pagecheckerboard="0"
     inkscape:deskcolor="#d1d1d1"
     inkscape:document-units="mm"
     showgrid="false"
     inkscape:zoom="0.4204826"
     inkscape:cx="621.90445"
     inkscape:cy="532.72121"
     inkscape:window-width="1366"
     inkscape:window-height="705"
     inkscape:window-x="-8"
     inkscape:window-y="-8"
     inkscape:window-maximized="1"
     inkscape:current-layer="layer1" /><defs
     id="defs292"><linearGradient
       inkscape:collect="always"
       id="linearGradient5107"><stop
         style="stop-color:#a0a0a0;stop-opacity:1;"
         offset="0"
         id="stop5103" /><stop
         style="stop-color:#fefefe;stop-opacity:1;"
         offset="1"
         id="stop5105" /></linearGradient><linearGradient
       id="linearGradient12685-8"><stop
         style="stop-color:#f8f9e7;stop-opacity:1;"
         offset="0"
         id="stop12687-2" /><stop
         style="stop-color:#ead7b5;stop-opacity:1;"
         offset="1"
         id="stop12689-3" /></linearGradient><radialGradient
       r="275.1348"
       fy="-49.105164"
       fx="1301.0398"
       cy="-49.105164"
       cx="1301.0398"
       gradientTransform="matrix(0.72146462,0,0,0.65433486,-740.15444,137.13124)"
       gradientUnits="userSpaceOnUse"
       id="radialGradient9302-2-60"
       xlink:href="#linearGradient12685-8"
       inkscape:collect="always" /><linearGradient
       inkscape:collect="always"
       xlink:href="#linearGradient5107"
       id="linearGradient5109"
       x1="140.11595"
       y1="94.053421"
       x2="171.43095"
       y2="94.053421"
       gradientUnits="userSpaceOnUse" /></defs><g
     inkscape:label="Layer 1"
     inkscape:groupmode="layer"
     id="layer1"><rect
       style="fill:url(#radialGradient9302-2-60);fill-opacity:1;fill-rule:nonzero;stroke:none;stroke-width:0.666724"
       id="rect12657-1-46"
       width="397"
       height="210"
       x="0"
       y="0"
       inkscape:export-filename="E:\Diego\my documents\Other works\LibreCad\PropuestaLibreCad2.png"
       inkscape:export-xdpi="71.989487"
       inkscape:export-ydpi="71.989487" /><text
       xml:space="preserve"
       style="font-style:normal;font-variant:normal;font-weight:bold;font-stretch:normal;font-size:17.6235px;line-height:1.2;font-family:'Arial Unicode MS';-inkscape-font-specification:'Arial Unicode MS Bold';text-align:center;letter-spacing:0.674169px;text-anchor:middle;fill:#800000;fill-opacity:1;fill-rule:evenodd;stroke:#9c6e63;stroke-width:0.414083;stroke-linecap:round;stroke-linejoin:round;stroke-dasharray:none;stroke-opacity:1;paint-order:markers stroke fill"
       x="195.66624"
       y="37.834053"
       id="text4127-18"
       transform="scale(1.0016014,0.99840116)"><tspan
         sodipodi:role="line"
         style="font-style:normal;font-variant:normal;font-weight:bold;font-stretch:normal;font-family:'Arial Unicode MS';-inkscape-font-specification:'Arial Unicode MS Bold';text-align:center;text-anchor:middle;fill:#800000;fill-opacity:1;stroke:#9c6e63;stroke-width:0.414083;stroke-dasharray:none;stroke-opacity:1"
         x="195.66624"
         y="37.834053"
         id="tspan4183-26">Formulario  Dinámica</tspan><tspan
         sodipodi:role="line"
         style="font-style:normal;font-variant:normal;font-weight:bold;font-stretch:normal;font-family:'Arial Unicode MS';-inkscape-font-specification:'Arial Unicode MS Bold';text-align:center;text-anchor:middle;fill:#800000;fill-opacity:1;stroke:#9c6e63;stroke-width:0.414083;stroke-dasharray:none;stroke-opacity:1"
         x="198.7886"
         y="58.982258"
         id="tspan2852"><tspan
   style="fill:#800000;stroke:#9c6e63;stroke-width:0.414083;stroke-dasharray:none;stroke-opacity:1"
   id="tspan2858">Estructural</tspan> </tspan></text><rect
       style="fill:#ffffff;fill-opacity:1;stroke:#000000;stroke-width:0.54213125;stroke-linecap:square;stroke-linejoin:round;stroke-dasharray:none;stroke-opacity:1;paint-order:markers stroke fill"
       id="rect6878"
       width="89.432526"
       height="66.740692"
       x="199.77715"
       y="92.10215" /><g
       id="g6876"
       transform="matrix(0.80056271,0,0,0.80056271,23.32553,18.175839)"><ellipse
         style="fill:url(#linearGradient5109);fill-opacity:1;stroke:#000000;stroke-width:0.470351;stroke-linecap:square;stroke-linejoin:round;stroke-dasharray:none;stroke-opacity:1;paint-order:markers stroke fill"
         id="path5101"
         cx="155.77345"
         cy="94.053421"
         rx="15.422323"
         ry="14.140203" /><path
         id="path4896"
         style="fill:#000000;stroke:#000000;stroke-width:0.357;stroke-dasharray:none;stroke-opacity:1"
         d="m 155.39295,78.74016 c -1.96648,-0.02665 -3.96538,0.31172 -5.89938,1.05317 -4.31734,1.65516 -7.94635,6.29667 -8.8899,11.37036 -1.0731,5.77032 1.85893,12.25944 7.11068,15.73806 1.96084,1.29881 5.65287,2.51768 7.6264,2.51768 h 1.38907 v 6.92309 6.92257 l -3.29954,2.95383 c -1.81489,1.62446 -3.3462,3.13598 -3.4029,3.35897 -0.0567,0.22298 2.59185,1.70188 5.88595,3.28662 l 5.9893,2.88147 -5.79706,2.79157 c -3.18832,1.53534 -5.79707,2.98242 -5.79707,3.21582 0,0.23339 2.52858,1.74051 5.61878,3.34915 3.09022,1.60863 5.74605,3.04228 5.90197,3.18585 0.15593,0.14357 -1.008,1.51753 -2.58641,3.05356 l -2.86959,2.79311 v 9.39168 c 0,8.32632 0.064,9.39116 0.56431,9.39116 0.50244,0 0.5538,-1.00505 0.4687,-9.16482 l -0.0956,-9.1643 3.13831,-2.96054 c 1.77812,-1.67714 3.06126,-3.16058 2.96054,-3.42305 -0.0978,-0.25479 -2.42739,-1.63193 -5.17694,-3.06028 -2.74956,-1.42835 -5.26114,-2.78861 -5.58106,-3.02255 -0.49098,-0.35901 0.3104,-0.86842 5.13767,-3.26698 3.1454,-1.56288 5.7182,-3.00593 5.71748,-3.20704 -6.3e-4,-0.2011 -2.74174,-1.64981 -6.09161,-3.21945 l -6.09059,-2.85409 3.24787,-3.03237 3.24838,-3.03185 -0.0103,-7.01456 -0.0103,-7.01405 1.44952,-0.24494 c 2.44859,-0.41369 6.20678,-2.53181 7.96799,-4.49068 4.29767,-4.78006 5.18216,-11.10777 2.37091,-16.96383 -2.68827,-5.59989 -8.29608,-8.96239 -14.19551,-9.04234 z m -0.58498,1.17306 c 7.81513,-0.27604 15.52459,6.19316 15.04766,15.41508 -0.31442,6.0798 -4.25213,10.94933 -10.08259,12.46797 -2.58274,0.67268 -4.3962,0.66944 -6.92981,-0.0119 -4.285,-1.1523 -8.11193,-4.32863 -9.95598,-8.26357 -0.85311,-1.82041 -0.9617,-2.4754 -0.9617,-5.7981 0,-3.38065 0.10057,-3.96411 1.03456,-5.98672 0.70739,-1.53186 1.69152,-2.84829 3.10938,-4.16098 2.60628,-2.41296 5.68039,-3.55378 8.73848,-3.66179 z M 124.2827,92.65301 c -1.03455,0 -2.9429,1.0191 -2.68614,1.43454 0.12303,0.19905 0.48184,0.16224 0.88728,-0.091 0.37439,-0.23379 0.79538,-0.30997 0.93586,-0.16949 0.14049,0.14048 -0.0738,1.78846 -0.47594,3.6623 l -0.73122,3.40755 1.10536,-0.10852 c 1.06034,-0.10416 1.12906,-0.21271 1.68569,-2.67322 0.63241,-2.79553 1.47372,-4.39198 2.3151,-4.39198 0.89319,0 0.93411,0.80137 0.20774,4.06125 l -0.6935,3.11402 1.11363,-0.10955 c 1.07116,-0.10502 1.13659,-0.2077 1.69447,-2.67374 0.6243,-2.75964 1.47274,-4.39198 2.28306,-4.39198 0.90054,0 0.98284,0.70757 0.37259,3.19773 -0.4594,1.87462 -0.50547,2.61779 -0.19895,3.19051 0.51493,0.96167 1.79178,0.95874 3.02048,-0.008 1.08754,-0.85547 1.01469,-1.3172 -0.0982,-0.62219 -1.12485,0.70247 -1.26584,0.18031 -0.63252,-2.34094 0.71985,-2.86581 0.72188,-3.22672 0.0212,-3.92741 -0.74908,-0.74904 -2.03158,-0.70852 -3.02463,0.0956 -0.78671,0.63704 -0.82952,0.63704 -1.46657,0 -0.85545,-0.85547 -2.11836,-0.83314 -3.25045,0.0574 -0.49887,0.39241 -0.98364,0.71365 -1.07694,0.71365 -0.0933,0 -0.25344,-0.32124 -0.35605,-0.71365 -0.11337,-0.43351 -0.48679,-0.71313 -0.95136,-0.71313 z m 164.08249,11.41532 -0.002,1.33739 c -10e-4,0.73576 -0.72319,12.25285 -1.60507,25.59327 -0.88189,13.34041 -1.60889,24.41686 -1.61489,24.61452 -0.006,0.19766 -0.90228,-1.28587 -1.9911,-3.29696 -1.08881,-2.0111 -2.1349,-3.65663 -2.32492,-3.65663 -0.62307,0 -2.45049,1.08016 -2.45049,1.4485 0,0.23934 0.23159,0.23649 0.68988,-0.009 0.37951,-0.2031 0.76683,-0.36949 0.86093,-0.36949 0.0941,0 1.00724,1.56536 2.02933,3.47834 1.02209,1.91299 2.1732,3.99978 2.55747,4.63745 0.38426,0.63766 0.84609,1.15962 1.02629,1.15962 0.1802,0 0.33196,-0.52196 0.33796,-1.15962 0.0303,-3.32763 3.49286,-52.40608 3.71295,-52.62676 0.14226,-0.14264 3.85772,-0.31061 8.25635,-0.37311 4.61889,-0.0657 7.99744,-0.2541 7.99744,-0.44597 0,-0.19608 -3.58128,-0.33176 -8.74003,-0.33176 z m 8.67493,10.70736 c -1.10496,0.004 -1.54485,0.11545 -1.23197,0.31367 0.40166,0.25447 0.29271,1.20331 -0.62425,5.43481 -0.61099,2.81956 -1.11105,5.24685 -1.11105,5.39399 0,0.14714 0.47036,0.26768 1.0449,0.26768 0.97517,0 1.07374,-0.13057 1.48363,-1.96215 0.50818,-2.27079 1.20694,-2.5497 1.56425,-0.62425 0.27092,1.45989 1.08406,2.5864 1.86655,2.5864 0.85395,0 2.63697,-1.08236 2.40399,-1.45934 -0.14524,-0.23502 -0.39012,-0.21908 -0.70952,0.046 -0.71215,0.59103 -1.09518,0.19629 -1.54564,-1.59266 -0.58222,-2.3122 -0.53991,-2.46164 1.01802,-3.61425 0.78018,-0.5772 1.42231,-1.17009 1.42731,-1.31724 0.005,-0.14716 -0.619,-0.26716 -1.38545,-0.26716 -1.21061,0 -1.36926,0.0918 -1.20974,0.70176 0.12261,0.46887 -0.17557,1.06182 -0.89762,1.78387 -1.0744,1.0744 -1.85002,1.38735 -1.85002,0.74673 0,-0.35746 0.97932,-4.77701 1.28933,-5.81877 0.159,-0.53433 -0.0618,-0.62408 -1.53272,-0.61908 z m -45.74502,13.19402 c -3.1558,0 -4.371,0.12074 -4.47104,0.44546 -0.42789,1.38891 -0.52552,2.40812 -0.23099,2.40812 0.18485,0 0.83994,-0.50354 1.45572,-1.11931 1.76237,-1.76237 1.9424,-1.00541 0.90382,3.79821 -0.50195,2.32164 -1.08951,4.43463 -1.30586,4.69532 -0.31817,0.38338 -0.0536,0.47388 1.38441,0.47388 1.66864,0 1.76792,-0.051 1.61902,-0.82993 -0.20954,-1.09614 1.28151,-8.13466 1.85105,-8.73796 0.36758,-0.38937 0.54738,-0.36937 1.03146,0.11472 0.32234,0.32233 0.58601,0.81525 0.58601,1.09554 0,0.28029 0.24056,0.50953 0.53486,0.50953 0.29431,0 0.53701,-0.28089 0.54001,-0.62425 0.003,-0.34336 0.10184,-0.98533 0.22015,-1.42679 0.21443,-0.79966 0.20142,-0.80254 -4.11862,-0.80254 z m 15.66571,4.28036 c -3.0917,0 -4.99401,0.13625 -4.99401,0.35709 0,0.22084 1.90231,0.35657 4.99401,0.35657 3.0917,0 4.99453,-0.13573 4.99453,-0.35657 0,-0.22084 -1.90283,-0.35709 -4.99453,-0.35709 z m 31.21464,1.42731 c -6.57978,0 -7.66982,0.0758 -7.66982,0.53485 0,0.459 1.09004,0.53537 7.66982,0.53537 6.57976,0 7.66981,-0.0763 7.66981,-0.53537 0,-0.45911 -1.09005,-0.53485 -7.66981,-0.53485 z m -31.21464,1.78335 c -3.0917,0 -4.99401,0.13625 -4.99401,0.35708 0,0.22084 1.90231,0.35657 4.99401,0.35657 3.0917,0 4.99453,-0.13573 4.99453,-0.35657 0,-0.22083 -1.90283,-0.35708 -4.99453,-0.35708 z m -138.74605,0.73484 c -0.18633,-0.002 -0.40157,0.003 -0.64802,0.007 -0.93197,0.0155 -1.49376,0.10874 -1.24851,0.20774 0.66971,0.27023 0.52199,1.97762 -0.58859,6.80941 l -1.00407,4.36976 h 1.15807 c 1.0582,0 1.17809,-0.11496 1.39474,-1.33739 0.54691,-3.0859 1.02544,-3.39662 1.64745,-1.07022 0.49242,1.84172 0.92104,2.40761 1.82366,2.40761 1.01955,0 2.85142,-1.04313 2.58589,-1.47278 -0.15872,-0.2568 -0.35129,-0.2523 -0.61857,0.015 -0.76743,0.76743 -1.20714,0.3537 -1.76888,-1.66346 l -0.57103,-2.05104 1.67173,-1.50017 1.67174,-1.50016 -1.76579,-0.016 c -1.30584,-0.0118 -1.66146,0.0883 -1.36529,0.38447 0.28986,0.28982 0.29452,0.63323 0.0165,1.24334 -0.41278,0.90595 -1.98848,2.11153 -2.32286,1.77715 -0.11178,-0.11178 0.0626,-1.41323 0.38758,-2.89233 0.73669,-3.35271 0.84854,-3.70452 -0.45579,-3.71812 z m 165.51703,5.68647 c -1.03455,0 -2.94289,1.01962 -2.68614,1.43506 0.12304,0.19905 0.48184,0.16225 0.88728,-0.091 0.37439,-0.23378 0.79538,-0.30999 0.93586,-0.1695 0.14048,0.14047 -0.0738,1.78846 -0.47594,3.66231 l -0.73122,3.40754 1.10536,-0.10852 c 1.06034,-0.10416 1.12906,-0.21323 1.68569,-2.67374 0.63242,-2.79553 1.47371,-4.39146 2.3151,-4.39146 0.89319,0 0.93411,0.80139 0.20774,4.06125 l -0.6935,3.11351 1.11415,-0.10904 c 1.07116,-0.10502 1.13607,-0.20821 1.69395,-2.67426 0.62431,-2.75964 1.47275,-4.39146 2.28306,-4.39146 0.90054,0 0.98284,0.70756 0.37259,3.19774 -0.4594,1.87462 -0.50546,2.61777 -0.19895,3.1905 0.51493,0.96167 1.79179,0.95823 3.02048,-0.008 1.08755,-0.85547 1.0147,-1.31667 -0.0982,-0.62167 -1.12484,0.70247 -1.26584,0.18031 -0.63252,-2.34094 0.71986,-2.86581 0.72189,-3.22672 0.0212,-3.92741 -0.74907,-0.74905 -2.03158,-0.70852 -3.02462,0.0956 -0.78672,0.63704 -0.82954,0.63704 -1.46658,0 -0.85546,-0.85547 -2.11836,-0.83313 -3.25045,0.0574 -0.49886,0.39241 -0.98364,0.71365 -1.07694,0.71365 -0.0933,0 -0.25343,-0.32124 -0.35605,-0.71365 -0.11337,-0.43351 -0.48679,-0.71366 -0.95136,-0.71366 z m -181.23701,31.39292 v 7.66982 7.66981 h 45.12697 45.12696 v -7.66981 -7.66982 h -45.12696 z" /><rect
         style="fill:#cc6600;fill-opacity:1;stroke:#000000;stroke-width:0.357;stroke-linecap:square;stroke-linejoin:round;stroke-dasharray:none;stroke-opacity:1;paint-order:markers stroke fill"
         id="rect6750"
         width="90.253929"
         height="15.33963"
         x="112.49478"
         y="173.27495" /></g></g></svg>
