<?xml version="1.0" encoding="UTF-8" standalone="no"?>
<!-- Created with Inkscape (http://www.inkscape.org/) -->

<svg
   width="32"
   height="32"
   viewBox="0 0 8.4666665 8.4666666"
   version="1.1"
   id="svg5"
   inkscape:version="1.2.2 (732a01da63, 2022-12-09)"
   sodipodi:docname="favicon.svg"
   xml:space="preserve"
   xmlns:inkscape="http://www.inkscape.org/namespaces/inkscape"
   xmlns:sodipodi="http://sodipodi.sourceforge.net/DTD/sodipodi-0.dtd"
   xmlns="http://www.w3.org/2000/svg"
   xmlns:svg="http://www.w3.org/2000/svg"><sodipodi:namedview
     id="namedview7"
     pagecolor="#ffffff"
     bordercolor="#000000"
     borderopacity="0.25"
     inkscape:showpageshadow="2"
     inkscape:pageopacity="0.0"
     inkscape:pagecheckerboard="0"
     inkscape:deskcolor="#d1d1d1"
     inkscape:document-units="mm"
     showgrid="false"
     inkscape:zoom="1.1893044"
     inkscape:cx="63.902901"
     inkscape:cy="-15.134898"
     inkscape:window-width="1366"
     inkscape:window-height="745"
     inkscape:window-x="-8"
     inkscape:window-y="-8"
     inkscape:window-maximized="1"
     inkscape:current-layer="layer1" /><defs
     id="defs2" /><g
     inkscape:label="Layer 1"
     inkscape:groupmode="layer"
     id="layer1"><rect
       style="fill:#293e66;stroke:none;stroke-width:1.10105;stroke-linecap:round;fill-opacity:1"
       id="rect238"
       width="8.4666672"
       height="8.4666662"
       x="0"
       y="0"
       rx="1.0583333"
       ry="1.0583333" /><g
       aria-label="ES"
       id="text1112"
       style="font-weight:bold;font-size:6.15663px;line-height:0.7;font-family:'Liberation Sans';-inkscape-font-specification:'Liberation Sans Bold';text-align:center;text-anchor:middle;fill:#ffffff;stroke-width:0.218149;stroke-linecap:round"><path
         d="M 3.8792937,6.5054007 H 0.58754084 V 2.0983598 H 3.777084 V 2.6214329 H 1.1707372 V 3.9681957 H 3.6087387 V 4.4912688 H 1.1707372 v 1.4910588 h 2.7085565 z"
         style="font-family:'Arial Unicode MS';-inkscape-font-specification:'Arial Unicode MS Bold'"
         id="path444" /><path
         d="M 7.2973058,3.3910116 C 7.2732565,3.1104361 7.1720488,2.9000044 6.9936829,2.7597166 6.815317,2.6174247 6.5597928,2.5462787 6.2271103,2.5462787 c -0.3006167,0 -0.5451182,0.056115 -0.7335047,0.1683454 -0.1883865,0.1122302 -0.2825797,0.2755653 -0.2825797,0.4900052 0,0.022258 9.86e-4,0.043858 0.00296,0.064801 0.014897,0.1582016 0.086059,0.2788932 0.2134859,0.3620748 0.1463001,0.092189 0.4248716,0.1843783 0.8357145,0.2765674 0.3647482,0.080164 0.6623587,0.162333 0.8928316,0.2465057 0.2304728,0.084173 0.4278778,0.2154419 0.5922149,0.3938078 0.1643371,0.1763618 0.2465057,0.413849 0.2465057,0.7124616 0,0.3787771 -0.1513104,0.6934226 -0.4539313,0.9439365 -0.3006167,0.2505139 -0.6934225,0.3757708 -1.1784174,0.3757708 -0.6192704,0 -1.0832222,-0.1382837 -1.3918554,-0.414851 C 4.6639035,5.8891364 4.5015705,5.5304005 4.4835335,5.089496 L 5.0366682,5.041397 c 0.026053,0.3527236 0.1623329,0.6102519 0.4088387,0.7725849 0.2465057,0.1603289 0.5441163,0.2404934 0.8928316,0.2404934 0.3266702,0 0.5902109,-0.067138 0.790622,-0.2014132 C 7.3313757,5.7187868 7.4325833,5.5364128 7.4325833,5.30594 7.4325833,5.0654467 7.3273675,4.8900869 7.1169358,4.7798608 6.9065041,4.6696347 6.5527784,4.5614127 6.0557588,4.4551948 5.5607433,4.3469727 5.2040115,4.1956623 4.9855634,4.0012635 4.7671153,3.8068647 4.6578912,3.5543467 4.6578912,3.2437095 c 0,-0.3527236 0.1382837,-0.6443218 0.414851,-0.8747946 C 5.3493096,2.138442 5.7260825,2.0232056 6.203061,2.0232056 c 0.4890032,0 0.881809,0.1152364 1.1784175,0.3457093 0.2986126,0.2284687 0.4569374,0.5541367 0.4749744,0.9770042 z"
         style="font-family:'Arial Unicode MS';-inkscape-font-specification:'Arial Unicode MS Bold'"
         id="path446"
         sodipodi:nodetypes="ccssssccscscsccccscsscssssccc" /></g></g></svg>
