<?xml version="1.0" encoding="UTF-8" standalone="no"?>
<svg
   width="96"
   height="16"
   fill="currentColor"
   class="bi bi-arrow-clockwise"
   viewBox="0 0 96 16"
   version="1.1"
   id="svg2"
   sodipodi:docname="menu.svg"
   inkscape:version="1.4 (86a8ad7, 2024-10-11)"
   xmlns:inkscape="http://www.inkscape.org/namespaces/inkscape"
   xmlns:sodipodi="http://sodipodi.sourceforge.net/DTD/sodipodi-0.dtd"
   xmlns="http://www.w3.org/2000/svg"
   xmlns:svg="http://www.w3.org/2000/svg">
  <defs
     id="defs2" />
  <sodipodi:namedview
     id="namedview2"
     pagecolor="#ffffff"
     bordercolor="#000000"
     borderopacity="0.25"
     inkscape:showpageshadow="2"
     inkscape:pageopacity="0.0"
     inkscape:pagecheckerboard="0"
     inkscape:deskcolor="#d1d1d1"
     inkscape:zoom="4.3203125"
     inkscape:cx="55.088608"
     inkscape:cy="-8.6799277"
     inkscape:window-width="1366"
     inkscape:window-height="705"
     inkscape:window-x="-8"
     inkscape:window-y="-8"
     inkscape:window-maximized="1"
     inkscape:current-layer="svg2" />
  <g
     id="g2"
     transform="translate(15.768535,0.72332658)"
     style="fill:#f9f9f9">
    <path
       fill-rule="evenodd"
       d="M 8,3 A 5,5 0 1 0 12.546,5.914 0.5,0.5 0 0 1 13.454,5.497 6,6 0 1 1 8,2 Z"
       id="path1-4"
       style="fill:#f9f9f9" />
    <path
       d="M 8,4.466 V 0.534 A 0.25,0.25 0 0 1 8.41,0.342 l 2.36,1.966 c 0.12,0.1 0.12,0.284 0,0.384 L 8.41,4.658 A 0.25,0.25 0 0 1 8,4.466"
       id="path2-8"
       style="fill:#f9f9f9" />
  </g>
  <g
     id="g1"
     style="fill:#f9f9f9">
    <path
       d="m 72.707,1.4999997 a 1,1 0 0 0 -1.414,0 l -6.647,6.646 a 0.5006316,0.5006316 0 0 0 0.708,0.7079999 L 72,2.2069997 78.646,8.8539996 A 0.5006316,0.5006316 0 0 0 79.354,8.1459997 L 77,5.7929997 v -3.293 a 0.5,0.5 0 0 0 -0.5,-0.5 h -1 a 0.5,0.5 0 0 0 -0.5,0.5 v 1.293 z"
       id="path1"
       style="fill:#f9f9f9" />
    <path
       d="m 72,3.2929997 6,5.9999999 V 13.5 A 1.5,1.5 0 0 1 76.5,15 h -9 A 1.5,1.5 0 0 1 66,13.5 V 9.2929996 Z"
       id="path2"
       style="fill:#f9f9f9" />
  </g>
</svg>
