<?xml version="1.0" encoding="UTF-8" standalone="no"?>
<!-- Created with Inkscape (http://www.inkscape.org/) -->

<svg
   width="100"
   height="100"
   viewBox="0 0 26.458333 26.458333"
   version="1.1"
   id="svg328"
   inkscape:version="1.2.2 (732a01da63, 2022-12-09)"
   sodipodi:docname="rocket.svg"
   xmlns:inkscape="http://www.inkscape.org/namespaces/inkscape"
   xmlns:sodipodi="http://sodipodi.sourceforge.net/DTD/sodipodi-0.dtd"
   xmlns="http://www.w3.org/2000/svg"
   xmlns:svg="http://www.w3.org/2000/svg">
  <sodipodi:namedview
     id="namedview330"
     pagecolor="#ffffff"
     bordercolor="#000000"
     borderopacity="0.25"
     inkscape:showpageshadow="2"
     inkscape:pageopacity="0.0"
     inkscape:pagecheckerboard="0"
     inkscape:deskcolor="#d1d1d1"
     inkscape:document-units="mm"
     showgrid="false"
     inkscape:zoom="3.7415825"
     inkscape:cx="36.615523"
     inkscape:cy="50.246119"
     inkscape:window-width="1366"
     inkscape:window-height="705"
     inkscape:window-x="-8"
     inkscape:window-y="-8"
     inkscape:window-maximized="1"
     inkscape:current-layer="layer1" />
  <defs
     id="defs325" />
  <g
     inkscape:label="Layer 1"
     inkscape:groupmode="layer"
     id="layer1">
    <path
       d="m -48.171244,54.522884 c -0.05159,-0.896408 -0.256117,-1.45706 -0.470165,-1.804194 -0.12409,-0.200554 -0.250296,-0.328083 -0.348985,-0.406664 a 0.92604165,0.92604165 0 0 0 -0.122503,-0.08334 0.52916666,0.52916666 0 0 0 -0.0381,-0.01984 0.14552083,0.14552083 0 0 0 -0.06615,-0.01693 0.14552083,0.14552083 0 0 0 -0.07038,0.01931 0.52916666,0.52916666 0 0 0 -0.03757,0.02117 1.0583333,1.0583333 0 0 0 -0.121444,0.08731 c -0.0979,0.08149 -0.223308,0.21246 -0.346604,0.415396 -0.21299,0.349779 -0.417248,0.908314 -0.469371,1.787525 l -0.396081,0.483129 -0.0011,0.0013 a 0.66145832,0.66145832 0 0 0 -0.144991,0.413279 v 0.872596 a 0.13229166,0.13229166 0 0 0 0.238125,0.07937 l 0.297656,-0.396875 c 0.04392,-0.05874 0.111125,-0.105834 0.198967,-0.150813 0.05662,-0.02858 0.109537,-0.0508 0.165364,-0.07435 l 0.05239,-0.02223 c 0.185208,0.113242 0.410104,0.168011 0.635,0.168011 0.224895,0 0.449791,-0.05477 0.635,-0.168011 q 0.02646,0.01164 0.05186,0.02196 c 0.05636,0.02381 0.109273,0.04604 0.165894,0.07461 0.08784,0.04498 0.155046,0.09207 0.198966,0.150813 l 0.297657,0.396875 a 0.13229166,0.13229166 0 0 0 0.238125,-0.07937 v -0.872596 a 0.66145832,0.66145832 0 0 0 -0.144992,-0.413279 z m 0.01244,0.432594 v 0.01455 c 0,0.229129 -0.07514,0.419365 -0.198438,0.566208 0.03863,0.01693 0.07726,0.0344 0.112448,0.05265 0.103188,0.05212 0.211667,0.121709 0.291042,0.227542 l 0.05953,0.07964 v -0.475721 a 0.396875,0.396875 0 0 0 -0.08652,-0.247386 z m -1.918229,0.58076 c -0.123296,-0.146843 -0.198438,-0.337079 -0.198438,-0.566208 v -0.01429 l -0.178064,0.216959 a 0.396875,0.396875 0 0 0 -0.08652,0.24765 v 0.475721 l 0.05953,-0.07937 c 0.07937,-0.105834 0.187854,-0.175684 0.291042,-0.227807 0.03519,-0.01799 0.07382,-0.03572 0.112448,-0.05265 m 0.862277,-3.060435 q 0.0254,0.01588 0.0598,0.04313 c 0.07514,0.0598 0.18071,0.164306 0.288396,0.338667 0.214841,0.34925 0.443177,0.984514 0.443177,2.112433 0,0.227012 -0.09896,0.391583 -0.249502,0.500856 -0.142875,0.103981 -0.337609,0.160602 -0.544248,0.160602 -0.20664,0 -0.401373,-0.05662 -0.544248,-0.160602 -0.150813,-0.109537 -0.249502,-0.273844 -0.249502,-0.500856 0,-1.106488 0.227541,-1.742546 0.443706,-2.097617 0.108214,-0.177271 0.214312,-0.286279 0.289983,-0.34925 q 0.03598,-0.0299 0.06244,-0.04762 z"
       id="path4"
       style="fill:#800080;stroke-width:0.264583" />
    <path
       d="m 13.480152,13.301044 c 1.376697,0 2.49401,-1.48808 2.49401,-3.3253392 0,-1.8372453 -1.117313,-3.325339 -2.49401,-3.325339 -1.376686,0 -2.493998,1.4880937 -2.493998,3.325339 0,1.8372592 1.117312,3.3253392 2.493998,3.3253392"
       id="path2-3"
       style="fill:#f9f9f9;stroke-width:1.66267" />
    <path
       d="M 20.052685,14.647811 C 19.728536,9.0146906 18.443222,5.4914868 17.098114,3.3100694 16.31832,2.0497858 15.525239,1.2483629 14.905061,0.75455039 A 5.8193387,5.8193387 0 0 0 14.135256,0.23086088 3.3253366,3.3253366 0 0 0 13.89589,0.10665502 0.91446757,0.91446757 0 0 0 13.480206,0 0.91446757,0.91446757 0 0 0 13.037925,0.12150572 3.3253366,3.3253366 0 0 0 12.8018,0.25516202 6.6506726,6.6506726 0 0 0 12.038609,0.80382691 C 11.423386,1.3159059 10.635327,2.1389043 9.8605134,3.4142267 8.5220616,5.6122769 7.2384906,9.1221553 6.9109384,14.647217 l -2.4890024,3.03602 -0.00685,0.0081 A 4.1566705,4.1566705 0 0 0 3.5039286,20.28841 v 5.483494 a 0.83133412,0.83133412 0 0 0 1.4963949,0.498712 l 1.8705123,-2.49401 C 7.1467875,23.4075 7.5690881,23.111566 8.121127,22.828863 8.4768696,22.649304 8.809524,22.509573 9.1602711,22.361607 l 0.32928,-0.139597 c 1.1638879,0.711617 2.5771329,1.055748 3.9904059,1.055748 1.413257,0 2.82653,-0.344131 3.990392,-1.055748 q 0.166327,0.07291 0.325904,0.137971 c 0.354121,0.149591 0.686642,0.289319 1.042518,0.468877 0.552041,0.282704 0.97434,0.578637 1.250293,0.947743 l 1.870507,2.49404 a 0.83133412,0.83133412 0 0 0 1.496395,-0.498713 v -5.483453 a 4.1566705,4.1566705 0 0 0 -0.910887,-2.597087 z m 0.07831,2.718457 v 0.09181 c 0,1.439869 -0.472251,2.635322 -1.247053,3.558103 0.242743,0.10665 0.485483,0.216144 0.706624,0.330899 0.648434,0.327525 1.330081,0.764811 1.828943,1.429893 L 21.79361,23.27744 V 20.287959 A 2.4940023,2.4940023 0 0 0 21.249941,18.733361 Z M 8.0766426,21.015825 C 7.3018416,20.093057 6.8295903,18.897591 6.8295903,17.457709 v -0.09046 l -1.1189317,1.363392 a 2.4940023,2.4940023 0 0 0 -0.5436708,1.556256 v 2.989497 L 5.5410909,22.77768 C 6.0398031,22.112641 6.7215852,21.673735 7.3700334,21.346115 7.5911728,21.232707 7.8339149,21.1216 8.0766554,21.015216 M 13.495272,1.7831347 q 0.159577,0.099908 0.375858,0.2710934 c 0.472251,0.3757225 1.135537,1.0325277 1.812309,2.1282103 1.350089,2.1947284 2.784976,6.1867816 2.784976,13.2747436 0,1.42657 -0.621839,2.460745 -1.567894,3.147427 -0.897793,0.65343 -2.12157,1.009171 -3.420113,1.009171 -1.29849,0 -2.522268,-0.355741 -3.420112,-1.009171 -0.9477434,-0.688397 -1.5678944,-1.720857 -1.5678944,-3.147427 0,-6.953279 1.4298911,-10.9503278 2.7882954,-13.1816291 0.680028,-1.1139363 1.346823,-1.7990115 1.822288,-2.1947284 Q 13.32912,1.8928947 13.495313,1.7815152 Z"
       id="path4-7"
       style="fill:#f9f9f9;stroke-width:1.66267" />
    <path
       d="m 15.939235,23.877281 c -0.798021,0.154723 -1.629403,0.23113 -2.459083,0.23113 -0.829614,0 -1.661009,-0.07696 -2.459085,-0.23113 l 1.794017,2.39258 a 0.83133412,0.83133412 0 0 0 1.330082,0 z"
       id="path6"
       style="fill:#f9f9f9;stroke-width:1.66267" />
  </g>
</svg>
